<svg fill="none" version="1.1" viewBox="0 0 24 24" xmlns="http://www.w3.org/2000/svg">
  <path d="m4.1229 9.3744h15.754m-12.253-5.2514v1.7505m8.7523-1.7505v1.7505m-9.6275 6.1266h1.7505m2.6257 0h1.7505m2.6257 0h1.7505m-10.503 2.6257h1.7505m2.6257 0h1.7505m2.6257 0h1.7505m-10.503 2.6257h1.7505m2.6257 0h1.7505m2.6257 0h1.7505m-10.328 2.6257h10.153c0.98035 0 1.4706 0 1.845-0.1908 0.32935-0.16778 0.59717-0.4356 0.76495-0.76495 0.1908-0.37442 0.1908-0.86464 0.1908-1.845v-8.4022c0-0.98035 0-1.4705-0.1908-1.845-0.16778-0.32938-0.4356-0.59716-0.76495-0.76498-0.37442-0.19079-0.86464-0.19079-1.845-0.19079h-10.153c-0.98035 0-1.4705 0-1.845 0.19079-0.32938 0.16782-0.59716 0.4356-0.76498 0.76498-0.19079 0.37444-0.19079 0.86461-0.19079 1.845v8.4022c0 0.98034 0 1.4706 0.19079 1.845 0.16782 0.32935 0.4356 0.59717 0.76498 0.76495 0.37444 0.1908 0.86461 0.1908 1.845 0.1908z" stroke="#000" stroke-linecap="round"/>
</svg>
