<svg version="1.1" viewBox="0 0 52.916 31.91" xmlns="http://www.w3.org/2000/svg">
  <defs>
    <clipPath id="clipPath49">
      <rect x="300.48" y="130.96" width="11.25" height="6.7843" rx=".67842" ry=".67842" fill="#fff" />
    </clipPath>
    <clipPath id="clipPath48">
      <rect x="300.48" y="130.96" width="11.25" height="6.7843" rx=".67842" ry=".67842" fill="#fff" />
    </clipPath>
    <clipPath id="clipPath46">
      <rect x="300.48" y="130.96" width="11.25" height="6.7843" rx=".67842" ry=".67842" fill="#fff" />
    </clipPath>
    <clipPath id="clipPath68">
      <rect x="300.48" y="130.96" width="11.25" height="6.7843" rx=".67842" ry=".67842" fill="#fff" />
    </clipPath>
    <clipPath id="clipPath68-6">
      <rect x="300.48" y="130.96" width="11.25" height="6.7843" rx=".67842" ry=".67842" fill="#fff" />
    </clipPath>
    <clipPath id="clipPath68-6-0">
      <rect x="300.48" y="130.96" width="11.25" height="6.7843" rx=".67842" ry=".67842" fill="#fff" />
    </clipPath>
    <clipPath id="clipPath68-6-07">
      <rect x="300.48" y="130.96" width="11.25" height="6.7843" rx=".67842" ry=".67842" fill="#fff" />
    </clipPath>
    <clipPath id="clipPath68-6-5">
      <rect x="300.48" y="130.96" width="11.25" height="6.7843" rx=".67842" ry=".67842" fill="#fff" />
    </clipPath>
    <clipPath id="clipPath68-6-3">
      <rect x="300.48" y="130.96" width="11.25" height="6.7843" rx=".67842" ry=".67842" fill="#fff" />
    </clipPath>
    <clipPath id="clipPath68-7">
      <rect x="300.48" y="130.96" width="11.25" height="6.7843" rx=".67842" ry=".67842" fill="#fff" />
    </clipPath>
    <clipPath id="clipPath68-7-1">
      <rect x="300.48" y="130.96" width="11.25" height="6.7843" rx=".67842" ry=".67842" fill="#fff" />
    </clipPath>
    <clipPath id="clipPath68-7-10">
      <rect x="300.48" y="130.96" width="11.25" height="6.7843" rx=".67842" ry=".67842" fill="#fff" />
    </clipPath>
    <clipPath id="clipPath68-7-7">
      <rect x="300.48" y="130.96" width="11.25" height="6.7843" rx=".67842" ry=".67842" fill="#fff" />
    </clipPath>
    <clipPath id="clipPath68-7-4">
      <rect x="300.48" y="130.96" width="11.25" height="6.7843" rx=".67842" ry=".67842" fill="#fff" />
    </clipPath>
  </defs>
  <g transform="translate(-153.46 -63.235)">
    <path transform="matrix(4.7036 0 0 4.7036 -1259.9 -552.74)" d="m300.48 130.96h11.25v6.7843h-11.25" clip-path="url(#clipPath49)" fill="#b31942" stroke-width=".0016252" />
    <path transform="matrix(4.7036 0 0 4.7036 -1259.9 -552.74)" d="m300.48 131.74h11.25m0 1.0437h-11.25m0 1.0437h11.25m0 1.0437h-11.25m0 1.0437h11.25m0 1.0437h-11.25" clip-path="url(#clipPath48)" stroke="#fff" stroke-width=".48754" />
    <path transform="matrix(4.7036 0 0 4.723 -1259.9 -555.27)" d="m300.48 130.96h5.1561v3.6531h-5.1561" clip-path="url(#clipPath46)" fill="#0a3161" stroke-width=".0017396" />
    <g fill="#fff">
      <path transform="matrix(4.7036 0 0 4.7036 -1257.8 -550.89)" d="m300.91 131.11 0.1227 0.37763-0.32123-0.23339h0.39706l-0.32123 0.23339z" clip-path="url(#clipPath68-7)" stroke-width=".0017396" />
      <g stroke-width=".0081822">
        <path d="m157.54 69.256 0.57713 1.7762-1.5109-1.0977h1.8676l-1.5109 1.0977z" />
        <path d="m157.54 72.692 0.57713 1.7762-1.5109-1.0978h1.8676l-1.5109 1.0978z" />
        <path d="m157.54 76.129 0.57713 1.7762-1.5109-1.0977h1.8676l-1.5109 1.0977z" />
      </g>
      <path transform="matrix(4.7036 0 0 4.7036 -1253.7 -550.89)" d="m300.91 131.11 0.1227 0.37763-0.32123-0.23339h0.39706l-0.32123 0.23339z" clip-path="url(#clipPath68-7-1)" stroke-width=".0017396" />
      <g stroke-width=".0081822">
        <path d="m161.65 69.256 0.57712 1.7762-1.5109-1.0977h1.8676l-1.5109 1.0977z" />
        <path d="m161.65 72.692 0.57712 1.7762-1.5109-1.0978h1.8676l-1.5109 1.0978z" />
        <path d="m161.65 76.129 0.57712 1.7762-1.5109-1.0977h1.8676l-1.5109 1.0977z" />
      </g>
      <path transform="matrix(4.7036 0 0 4.7036 -1245.5 -550.89)" d="m300.91 131.11 0.1227 0.37763-0.32123-0.23339h0.39706l-0.32123 0.23339z" clip-path="url(#clipPath68-7-10)" stroke-width=".0017396" />
      <g stroke-width=".0081822">
        <path d="m169.88 69.256 0.57714 1.7762-1.5109-1.0977h1.8676l-1.5109 1.0977z" />
        <path d="m169.88 72.692 0.57714 1.7762-1.5109-1.0978h1.8676l-1.5109 1.0978z" />
        <path d="m169.88 76.129 0.57714 1.7762-1.5109-1.0977h1.8676l-1.5109 1.0977z" />
      </g>
      <path transform="matrix(4.7036 0 0 4.7036 -1241.4 -550.89)" d="m300.91 131.11 0.1227 0.37763-0.32123-0.23339h0.39706l-0.32123 0.23339z" clip-path="url(#clipPath68-7-4)" stroke-width=".0017396" />
      <g stroke-width=".0081822">
        <path d="m174 69.256 0.57712 1.7762-1.5109-1.0977h1.8676l-1.5109 1.0977z" />
        <path d="m174 72.692 0.57712 1.7762-1.5109-1.0978h1.8676l-1.5109 1.0978z" />
        <path d="m174 76.129 0.57712 1.7762-1.5109-1.0977h1.8676l-1.5109 1.0977z" />
      </g>
      <path transform="matrix(4.7036 0 0 4.7036 -1249.6 -550.89)" d="m300.91 131.11 0.1227 0.37763-0.32123-0.23339h0.39706l-0.32123 0.23339z" clip-path="url(#clipPath68-7-7)" stroke-width=".0017396" />
      <g stroke-width=".0081822">
        <path d="m165.77 69.256 0.57713 1.7762-1.5109-1.0977h1.8676l-1.5109 1.0977z" />
        <path d="m165.77 72.692 0.57713 1.7762-1.5109-1.0978h1.8676l-1.5109 1.0978z" />
        <path d="m165.77 76.129 0.57713 1.7762-1.5109-1.0977h1.8676l-1.5109 1.0977z" />
      </g>
      <path transform="matrix(4.7036 0 0 4.7036 -1259.9 -552.61)" d="m300.91 131.11 0.1227 0.37763-0.32123-0.23339h0.39706l-0.32123 0.23339z" clip-path="url(#clipPath68)" stroke-width=".0017396" />
      <g stroke-width=".0081822">
        <path d="m155.48 67.538 0.57713 1.7762-1.5109-1.0977h1.8676l-1.5109 1.0977z" />
        <path d="m155.48 70.974 0.57713 1.7762-1.5109-1.0978h1.8676l-1.5109 1.0978z" />
        <path d="m155.48 74.411 0.57713 1.7762-1.5109-1.0977h1.8676l-1.5109 1.0977z" />
        <path d="m155.48 77.847 0.57713 1.7762-1.5109-1.0978h1.8676l-1.5109 1.0978z" />
      </g>
      <path transform="matrix(4.7036 0 0 4.7036 -1255.8 -552.61)" d="m300.91 131.11 0.1227 0.37763-0.32123-0.23339h0.39706l-0.32123 0.23339z" clip-path="url(#clipPath68-6)" stroke-width=".0017396" />
      <g stroke-width=".0081822">
        <path d="m159.59 67.538 0.57713 1.7762-1.5109-1.0977h1.8676l-1.5109 1.0977z" />
        <path d="m159.59 70.974 0.57713 1.7762-1.5109-1.0978h1.8676l-1.5109 1.0978z" />
        <path d="m159.59 74.411 0.57713 1.7762-1.5109-1.0977h1.8676l-1.5109 1.0977z" />
        <path d="m159.59 77.847 0.57713 1.7762-1.5109-1.0978h1.8676l-1.5109 1.0978z" />
      </g>
      <path transform="matrix(4.7036 0 0 4.7036 -1251.7 -552.61)" d="m300.91 131.11 0.1227 0.37763-0.32123-0.23339h0.39706l-0.32123 0.23339z" clip-path="url(#clipPath68-6-0)" stroke-width=".0017396" />
      <g stroke-width=".0081822">
        <path d="m163.71 67.538 0.57713 1.7762-1.5109-1.0977h1.8676l-1.5109 1.0977z" />
        <path d="m163.71 70.974 0.57713 1.7762-1.5109-1.0978h1.8676l-1.5109 1.0978z" />
        <path d="m163.71 74.411 0.57713 1.7762-1.5109-1.0977h1.8676l-1.5109 1.0977z" />
        <path d="m163.71 77.847 0.57713 1.7762-1.5109-1.0978h1.8676l-1.5109 1.0978z" />
      </g>
      <path transform="matrix(4.7036 0 0 4.7036 -1247.5 -552.61)" d="m300.91 131.11 0.1227 0.37763-0.32123-0.23339h0.39706l-0.32123 0.23339z" clip-path="url(#clipPath68-6-07)" stroke-width=".0017396" />
      <g stroke-width=".0081822">
        <path d="m167.82 67.538 0.57713 1.7762-1.5109-1.0977h1.8676l-1.5109 1.0977z" />
        <path d="m167.82 70.974 0.57713 1.7762-1.5109-1.0978h1.8676l-1.5109 1.0978z" />
        <path d="m167.82 74.411 0.57713 1.7762-1.5109-1.0977h1.8676l-1.5109 1.0977z" />
        <path d="m167.82 77.847 0.57713 1.7762-1.5109-1.0978h1.8676l-1.5109 1.0978z" />
      </g>
      <path transform="matrix(4.7036 0 0 4.7036 -1243.4 -552.61)" d="m300.91 131.11 0.1227 0.37763-0.32123-0.23339h0.39706l-0.32123 0.23339z" clip-path="url(#clipPath68-6-5)" stroke-width=".0017396" />
      <g stroke-width=".0081822">
        <path d="m171.94 67.538 0.57713 1.7762-1.5109-1.0977h1.8676l-1.5109 1.0977z" />
        <path d="m171.94 70.974 0.57713 1.7762-1.5109-1.0978h1.8676l-1.5109 1.0978z" />
        <path d="m171.94 74.411 0.57713 1.7762-1.5109-1.0977h1.8676l-1.5109 1.0977z" />
        <path d="m171.94 77.847 0.57713 1.7762-1.5109-1.0978h1.8676l-1.5109 1.0978z" />
      </g>
      <path transform="matrix(4.7036 0 0 4.7036 -1239.3 -552.61)" d="m300.91 131.11 0.1227 0.37763-0.32123-0.23339h0.39706l-0.32123 0.23339z" clip-path="url(#clipPath68-6-3)" stroke-width=".0017396" />
      <g stroke-width=".0081822">
        <path d="m176.05 67.538 0.57713 1.7762-1.5109-1.0977h1.8676l-1.5109 1.0977z" />
        <path d="m176.05 70.974 0.57713 1.7762-1.5109-1.0978h1.8676l-1.5109 1.0978z" />
        <path d="m176.05 74.411 0.57713 1.7762-1.5109-1.0977h1.8676l-1.5109 1.0977z" />
        <path d="m176.05 77.847 0.57713 1.7762-1.5109-1.0978h1.8676l-1.5109 1.0978z" />
      </g>
    </g>
  </g>
</svg>
