<svg version="1.1" viewBox="0 0 6.6146 5.7878" xmlns="http://www.w3.org/2000/svg">
 <g transform="translate(-22.49 -53.181)">
  <path d="m22.959 55.042c0.0087 5e-3 0.31335 0.17814 0.56444 0.17814 0.25108 0 0.56619-0.17315 0.57521-0.17814h0.11688c0.18915 5.7e-4 0.34144 0.15321 0.34144 0.34144v1.3122c0 0.22832-0.18509 0.41341-0.41341 0.41341v1.5503c0 0.17124-0.13882 0.31006-0.31006 0.31006h-0.62012c-0.17124 0-0.31006-0.13882-0.31006-0.31006v-1.5503c-0.22832 0-0.41341-0.18509-0.41341-0.41341v-1.3014c0-0.19415 0.1571-0.3516 0.3522-0.3522zm2.2738 0c0.0087 5e-3 0.31337 0.17814 0.56444 0.17814 0.25107 0 0.56619-0.17315 0.57521-0.17814h0.11688c0.18915 5.7e-4 0.34144 0.15321 0.34144 0.34144v1.3122c0 0.22832-0.18509 0.41341-0.41341 0.41341v1.5503c0 0.17124-0.13882 0.31006-0.31006 0.31006h-0.62012c-0.17124 0-0.31006-0.13882-0.31006-0.31006v-1.5503c-0.22832 0-0.41341-0.18509-0.41341-0.41341v-1.3014c0-0.19415 0.1571-0.3516 0.3522-0.3522zm3.1483 3.9274h-0.62012c-0.17124 0-0.31006-0.13882-0.31006-0.31006v-1.5503c-0.22832 0-0.41341-0.18509-0.41341-0.41341v-1.3014c0-0.19451 0.15769-0.3522 0.3522-0.3522h0.11689s0.30978 0.17814 0.56444 0.17814c0.25466 0 0.57521-0.17814 0.57521-0.17814h0.11688c0.18858 0 0.34144 0.15286 0.34144 0.34144v1.3122c0 0.22832-0.18509 0.41341-0.41341 0.41341v1.5503c0 0.17082-0.13812 0.30936-0.31006 0.31006zm-4.8576-4.1341c0.45664 0 0.82682-0.37019 0.82682-0.82683s-0.37018-0.82682-0.82682-0.82682c-0.45664 0-0.82682 0.37018-0.82682 0.82682s0.37018 0.82683 0.82682 0.82683zm2.2738 0c0.45664 0 0.82682-0.37019 0.82682-0.82683s-0.37018-0.82682-0.82682-0.82682c-0.45664 0-0.82682 0.37018-0.82682 0.82682s0.37018 0.82683 0.82682 0.82683zm3.1006-0.82683c0 0.45664-0.37018 0.82683-0.82682 0.82683s-0.82682-0.37019-0.82682-0.82683 0.37018-0.82682 0.82682-0.82682 0.82682 0.37018 0.82682 0.82682z" fill="#fff" stroke-width=".012919"/>
 </g>
</svg>
