<svg version="1.1" viewBox="0 0 5.9665 6.6146" xmlns="http://www.w3.org/2000/svg">
 <g transform="translate(-174.1 -83.608)">
  <g transform="matrix(.33147 0 0 .33147 173.1 82.931)" fill="#fff">
   <path d="m16.935 8.094a7 7 0 0 0-13.935 0.906v12a1 1 0 0 0 2 0v-12a4.993 4.993 0 0 1 9.913-0.858 5.177 5.177 0 0 0-3.913 5.073v1.285a1 1 0 0 0 1 1h8a1 1 0 0 0 1-1v-1.5a5 5 0 0 0-4.065-4.906z"/>
   <path d="m16 18a1 1 0 0 0-1 1v2a1 1 0 0 0 2 0v-2a1 1 0 0 0-1-1z"/>
   <path d="m20 18a1 1 0 0 0-1 1v2a1 1 0 0 0 2 0v-2a1 1 0 0 0-1-1z"/>
   <path d="m12 18a1 1 0 0 0-1 1v2a1 1 0 0 0 2 0v-2a1 1 0 0 0-1-1z"/>
  </g>
 </g>
</svg>
