<svg width="24.644" height="25" version="1.1" viewBox="0 0 6.5204 6.6146" xmlns="http://www.w3.org/2000/svg">
 <g transform="translate(-137.58 -148.96)">
  <g transform="matrix(.012919 0 0 .012919 137.54 148.96)" fill="#fff">
   <g fill="#fff">
    <g fill="#fff">
     <path d="m266.77 83.383h-21.533c-68.424 0-134.02 26.331-184.55 70.217h390.63c-50.526-43.886-116.12-70.217-184.55-70.217z"/>
     <path d="m262.8 0h-13.609c-11.343 0-20.989 8.991-20.989 20.335v33.791h55.589v-33.791c-1e-3 -11.344-9.647-20.335-20.991-20.335z"/>
     <path d="m486.41 190.17h-460.82c-12.118 0-21.943 10.032-21.943 22.152 0 6.491 2.835 12.2 7.314 16.219 3.884 3.483 9.001 5.516 14.629 5.516h13.907v151.97c0 69.592 57.34 125.97 126.93 125.97h179.14c69.593 0 126.93-56.381 126.93-125.97v-151.97h13.907c5.628 0 10.745-2.032 14.629-5.516 4.479-4.017 7.314-9.727 7.314-16.217 0-12.119-9.824-22.153-21.943-22.153z"/>
    </g>
   </g>
  </g>
 </g>
</svg>
