<svg version="1.1" viewBox="0 0 6.6146 6.1421" xmlns="http://www.w3.org/2000/svg">
 <g transform="translate(-205.32 -118.8)">
  <g transform="matrix(.015005 0 0 .015005 202.62 115.63)" fill="#fff">
   <path d="m337.02 258.3c0 26.086-21.148 47.234-47.234 47.234s-47.23-21.148-47.23-47.234 21.145-47.23 47.23-47.23c26.086 0 47.234 21.145 47.234 47.23"/>
   <path d="m400 400-44.527-44.527c-11.805-11.805-27.832-18.449-44.523-18.449h-36.902c-17.383 0-31.488 14.105-31.488 31.488v31.488h-62.977v157.44c0 34.793 28.184 62.977 62.977 62.977h314.88c34.793 0 62.977-28.184 62.977-62.977l-0.00391-157.44zm-94.465 157.44h-62.977v-94.465h62.977zm125.95 0h-62.977v-94.465h62.977zm125.95 0h-62.977v-94.465h62.977z"/>
   <path d="m450.22 359.32-6.6445 9.1953h37.879c12.25-22.449 21.758-60.773-7.3359-89.867-22.922-22.922 0.53516-56.805 1.668-58.41l6.582-9.1641h-37.848c-12.25 22.449-21.758 60.773 7.3047 89.867 22.984 22.953-0.66016 56.992-1.6055 58.379z"/>
   <path d="m544.69 359.32-6.6445 9.1953h37.879c12.25-22.449 21.758-60.773-7.3359-89.867-22.922-22.922 0.53516-56.805 1.668-58.41l6.582-9.1641h-37.879c-12.25 22.449-21.758 60.773 7.3359 89.867 22.984 22.953-0.66016 56.992-1.6055 58.379z"/>
  </g>
 </g>
</svg>
