<svg version="1.1" viewBox="0 0 6.6146 6.3122" xmlns="http://www.w3.org/2000/svg">
 <g transform="translate(-123.56 -107.42)">
  <g transform="matrix(.012919 0 0 .012919 123.56 107.27)" fill="#fff">
   <g transform="matrix(1.0905,0,0,1.0905,-2.5964e-7,-1.738e-4)" fill="#fff">
    <path d="m457.4 213.15c-20.874-21.313-66.719-22.256-222.53-22.256-115.21 0-234.35 0-234.35 83.212 0 3.235 0.423 6.413 1.032 9.551-0.374 2.065-0.715 4.154-0.943 6.332-3.219 31.059 6.153 59.038 27.881 83.139 57.006 63.216 188.58 85.651 283.96 85.651 101.1 0 156.77-59.347 156.77-167.12 0-4.3 0.081-8.316 0.163-12.071 0.114-5.527 0.179-10.803-0.024-15.875 8e-3 -0.536 8e-3 -1.162 0.024-1.683 0.373-19.281 0.715-35.928-11.982-48.885zm-23.223 22.752c3.138 3.211 2.934 13.03 2.682 25.475-0.016 0.699-0.016 1.544-0.033 2.26-0.065 3.333-0.138 6.739-0.138 10.47 0 35.278-4.357 68.109-42.171 85.813 10.925-25.386 21.029-62.403 22.045-113.01 0.106-5.357 0.13-10.827 0.024-16.493-8e-3 -0.366 8e-3 -0.699 0-1.073 6.617 1.26 11.705 2.788 14.924 4.65 1.057 0.601 2.008 1.227 2.667 1.91zm-335.74-6.032c-0.024 0.496-0.089 1.024-0.138 1.536-0.536 5.349-2.569 11.575-5.121 17.428-2.991 6.844-6.568 13.087-8.901 16.542-8.82 12.957-5.503 30.62 7.438 39.472 4.91 3.373 10.518 4.983 16.062 4.983 9.063 0 17.98-4.324 23.492-12.364 2.13-3.105 18.436-27.653 22.971-55.079 0.74-4.471 1.195-9.006 1.195-13.55 0-0.959-0.187-1.861-0.285-2.796-0.041-0.439-0.073-0.886-0.13-1.317 24.304-1.089 51.243-1.317 79.863-1.317 49.032 0 91.82 8e-3 125.24 1.162-0.073 0.431-0.049 0.886-0.106 1.333-0.146 1.276-0.325 2.544-0.301 3.869 0.098 4.276 0.049 8.307 0 12.355-0.919 85.017-32.311 121.3-33.514 122.64-2.495 2.593-4.341 5.568-5.657 8.706-2.658 0.057-5.316 0.106-8.096 0.106-6.544 0-13.176-0.179-19.85-0.471 13.672-24.239 26.198-57.794 32.124-103.62 1.52-11.762-4.381-22.752-14.054-28.312-3.146-1.805-6.682-3.056-10.502-3.552-6.227-0.829-12.234 0.536-17.379 3.398-7.625 4.243-13.282 11.851-14.485 21.159-7.438 57.518-26.54 88.699-40.147 104.22-10.917-1.764-21.736-3.837-32.376-6.137 19.305-24.873 36.652-57.087 38.383-93.958 0.496-10.6-4.95-20.013-13.323-25.304-4.024-2.536-8.665-4.211-13.762-4.446-6.227-0.309-12.063 1.52-16.932 4.739-7.316 4.845-12.38 12.924-12.827 22.345-1.333 28.361-20.541 57.502-42.545 80.026-51.047-17.062-89.983-39.147-99.445-60.054-1.447-3.203-2.284-6.381-2.284-9.51 0-11.242 5.064-19.988 14.258-26.816 11.266-8.374 28.8-13.861 51.129-17.413z"/>
    <path d="m192.17 140.92c12.876-16.607 18.387-32.539 14.127-53.445-4.211-20.647-18.501-33.79-3.455-53.486 12.737-16.672-15.526-32.831-28.076-16.412-11.315 14.81-14.355 30.726-10.201 48.771 4.202 18.257 18.395 33.799 4.617 51.576-12.681 16.355 10.153 39.554 22.988 22.996z"/>
    <path d="m265.32 140.92c12.876-16.607 18.387-32.539 14.127-53.445-4.211-20.647-18.501-33.79-3.455-53.486 12.737-16.672-15.526-32.831-28.076-16.412-11.315 14.81-14.355 30.726-10.201 48.771 4.202 18.257 18.395 33.799 4.617 51.576-12.68 16.355 10.153 39.554 22.988 22.996z"/>
    <path d="m330.35 140.92c12.876-16.607 18.387-32.539 14.127-53.445-4.211-20.647-18.501-33.79-3.455-53.486 12.737-16.672-15.526-32.831-28.076-16.412-11.315 14.81-14.355 30.726-10.201 48.771 4.202 18.257 18.395 33.799 4.617 51.576-12.68 16.355 10.153 39.554 22.988 22.996z"/>
   </g>
  </g>
 </g>
</svg>
