<svg version="1.1" viewBox="0 0 6.6146 4.4117" xmlns="http://www.w3.org/2000/svg">
 <g transform="translate(-165.36 -155.84)">
  <g transform="matrix(.21694 0 0 .21694 165.2 154.57)" fill="#fff">
   <path d="m18.091 21.12c-1.155-1.155-3.027-1.155-4.182 0s-1.155 3.027 0 4.182 3.027 1.155 4.182 0 1.155-3.027 0-4.182zm8.015-3.833-2.962 2.962c-3.945-3.945-10.342-3.945-14.287 0l-2.962-2.962c5.581-5.581 14.63-5.581 20.211 0zm2.09-2.091c-6.736-6.736-17.657-6.736-24.393 0l-3.049-3.049c8.42-8.42 22.071-8.42 30.491 0z" fill="#fff"/>
  </g>
 </g>
</svg>
