<svg version="1.1" viewBox="0 0 4.7625 6.6146" xmlns="http://www.w3.org/2000/svg">
 <g transform="translate(-133.09 -160.87)">
  <g transform="matrix(.012919 0 0 .012919 132.15 160.87)" fill="#fff">
   <path d="m103.04 0c-16.92 0-30.72 13.8-30.72 30.72v153.6h368.64v-153.6c0-16.92-13.8-30.72-30.72-30.72zm40.96 61.44c5.64 0 10.24 4.6 10.24 10.24v71.68c0 5.64-4.6 10.24-10.24 10.24s-10.24-4.6-10.24-10.24v-71.68c0-5.64 4.6-10.24 10.24-10.24zm-71.68 143.36v245.76c0 16.92 13.8 30.72 30.72 30.72v10.24c0 11.28 9.2 20.48 20.48 20.48h30.72c11.28 0 20.48-9.2 20.48-20.48v-10.24h163.84v10.24c0 11.28 9.2 20.48 20.48 20.48h30.72c11.28 0 20.48-9.2 20.48-20.48v-10.24c16.92 0 30.72-13.8 30.72-30.72v-245.76zm71.68 30.72c5.64 0 10.24 4.6 10.24 10.24v71.68c0 5.68-4.6 10.24-10.24 10.24s-10.24-4.56-10.24-10.24v-71.68c0-5.64 4.6-10.24 10.24-10.24z" fill="#fff" stroke-width="10.24"/>
  </g>
 </g>
</svg>
