<svg version="1.1" viewBox="0 0 6.6146 6.6146" xmlns="http://www.w3.org/2000/svg">
 <g transform="translate(-101.6 -145.26)">
  <g transform="matrix(.33073 0 0 .33073 101.6 145.26)" fill="#fff">
   <path d="m7.1532 3.4084c1.2666-2.2722 1.8999-3.4084 2.8468-3.4084s1.5802 1.1361 2.8468 3.4084l0.3277 0.58786c0.36 0.6457 0.5399 0.96856 0.8206 1.1816 0.2806 0.21302 0.63 0.29209 1.329 0.45024l0.6364 0.14398c2.4596 0.55653 3.6895 0.83479 3.9821 1.7757 0.2926 0.94087-0.5458 1.9214-2.2227 3.8822l-0.4338 0.5073c-0.4765 0.5572-0.7148 0.8358-0.822 1.1805-0.1071 0.3447-0.0711 0.7164 9e-4 1.4599l0.0656 0.6768c0.2535 2.6162 0.3803 3.9243-0.3857 4.5058-0.7661 0.5815-1.9176 0.0513-4.2206-1.009l-0.5958-0.2744c-0.6544-0.3013-0.9816-0.452-1.3285-0.452s-0.6741 0.1507-1.3285 0.452l-0.5958 0.2744c-2.303 1.0603-3.4545 1.5905-4.2206 1.009s-0.63927-1.8896-0.38575-4.5058l0.06558-0.6768c0.07205-0.7435 0.10807-1.1152 8.8e-4 -1.4599-0.10718-0.3447-0.34543-0.6233-0.82194-1.1805l-0.43382-0.5073c-1.6768-1.9608-2.5153-2.9413-2.2227-3.8822 0.2926-0.94091 1.5224-1.2192 3.9821-1.7757l0.63635-0.14398c0.69896-0.15815 1.0484-0.23722 1.329-0.45024s0.46059-0.53587 0.82053-1.1816z" fill="#fff"/>
  </g>
 </g>
</svg>
