<svg version="1.1" viewBox="0 0 6.6146 5.8995" xmlns="http://www.w3.org/2000/svg">
 <g transform="translate(-110.07 -90.488)">
  <g transform="matrix(.012919 0 0 .012919 110.07 90.13)" fill="#fff">
   <path d="m491.24 318.27h-89.946v-145.3c0-80.117-65.179-145.3-145.3-145.3s-145.3 65.18-145.3 145.3v145.3h-89.946c-11.463 0-20.757 9.294-20.757 20.757s9.294 20.757 20.757 20.757h6.919v103.78c0 11.463 9.294 20.757 20.757 20.757h415.14c11.463 0 20.757-9.294 20.757-20.757v-103.78h6.919c11.463 0 20.757-9.294 20.757-20.757s-9.294-20.757-20.758-20.757zm-380.54 124.54h-41.514v-83.027h41.513v83.027zm124.54-371.53v101.7h-83.027c0-50.119 35.713-92.052 83.027-101.7zm-83.027 143.21h83.027v103.78h-83.027zm41.514 228.32h-41.513v-83.027h41.513zm83.027 0h-41.514v-83.027h41.514zm83.027 0h-41.514v-83.027h41.514zm0-124.54h-83.027v-103.78h83.027zm-83.027-145.3v-101.7c47.314 9.644 83.027 51.576 83.027 101.7zm166.05 269.84h-41.514v-83.027h41.514z" fill="#fff"/>
  </g>
 </g>
</svg>
